<svg xmlns="http://www.w3.org/2000/svg" width="16" height="16" fill="none" viewBox="0 0 16 16"><path fill="#000" d="M5.75 10.856c.3 0 .5-.2.5-.5s-.2-.5-.5-.5-.5.2-.5.5.2.5.5.5Z"/><path fill="#000" d="M15 2.856h-2v-2h-1v2H4v-2H3v2H1c-.6 0-1 .4-1 1v11c0 .5.4 1 1 1h14c.5 0 1-.5 1-1v-11c0-.6-.5-1-1-1Zm0 12H1v-7h14v7Zm-14-8v-3h2v2h1v-2h8v2h1v-2h2v3H1Z"/><path fill="#000" d="M8 10.856c.3 0 .5-.2.5-.5s-.2-.5-.5-.5-.5.2-.5.5.2.5.5.5ZM10.25 10.856c.3 0 .5-.2.5-.5s-.2-.5-.5-.5-.5.2-.5.5.2.5.5.5ZM5.75 11.856c-.3 0-.5.2-.5.5s.2.5.5.5.5-.2.5-.5-.2-.5-.5-.5ZM3.5 10.856c.3 0 .5-.2.5-.5s-.2-.5-.5-.5-.5.2-.5.5.2.5.5.5ZM3.5 11.856c-.3 0-.5.2-.5.5s.2.5.5.5.5-.2.5-.5-.2-.5-.5-.5ZM8 11.856c-.3 0-.5.2-.5.5s.2.5.5.5.5-.2.5-.5-.2-.5-.5-.5ZM10.25 11.856c-.3 0-.5.2-.5.5s.2.5.5.5.5-.2.5-.5-.2-.5-.5-.5ZM12.5 10.856c.3 0 .5-.2.5-.5s-.2-.5-.5-.5-.5.2-.5.5.2.5.5.5ZM12.5 11.856c-.3 0-.5.2-.5.5s.2.5.5.5.5-.2.5-.5-.2-.5-.5-.5Z"/></svg>